inDegrees=yes
name=ik_data_2024_11_07_18_20
DataType=double
version=3
OpenSimVersion=4.5.1
endheader
time	pelvis_tilt	pelvis_list	pelvis_rotation	pelvis_tx	pelvis_ty	pelvis_tz	hip_flexion_r	hip_adduction_r	hip_rotation_r	knee_angle_r	knee_angle_r_beta	ankle_angle_r	subtalar_angle_r	mtp_angle_r	hip_flexion_l	hip_adduction_l	hip_rotation_l	knee_angle_l	knee_angle_l_beta	ankle_angle_l	subtalar_angle_l	mtp_angle_l	lumbar_extension	lumbar_bending	lumbar_rotation	arm_flex_r	arm_add_r	arm_rot_r	elbow_flex_r	pro_sup_r	wrist_flex_r	wrist_dev_r	arm_flex_l	arm_add_l	arm_rot_l	elbow_flex_l	pro_sup_l	wrist_flex_l	wrist_dev_l
10.03599	1.209063331507596	1.280252299131974	0.5287252877058511	0	0.9399999999999999	0	-1.551390698596472	0.2095228332234469	-9.328565643202159	0.5038270714545174	0.008793441257562066	-5.11287067292596	0	0	-0.9478998338848594	1.298725766628354	9.056934313490395	0.5132249657830817	0.008957465456350015	-5.11287067292596	0	0	0	0	0	0	-11.17860285829727	0	75.00351618616212	45.08359082749364	0	0	0	-11.17860285829727	0	75.00351618616212	45.08359082749364	0	0
10.03812	1.267683509914214	1.179109824262394	-0.137513933808328	0	0.9399999999999999	0	-1.600235064233006	0.2376350834472863	-8.651382868873586	0.4902103208184937	0.008555784125540419	-5.112710977461886	0	0	-0.9983687462842206	1.210067628119091	8.378987067166367	0.515355327654186	0.00899464728525973	-5.112710977461886	0	0	0	0	0	0	-11.17922996699322	0	75.00351512584051	45.08351853961097	0	0	0	-11.17922996699322	0	75.00351512584051	45.08351853961097	0	0
10.09239	1.320984117234822	1.292467362074147	0.6303792914216986	0	0.9399999999999999	0	-1.62699051688184	0.1443887013917407	-9.42443517176279	0.5007595567296597	0.008739903025759889	-5.112548103921762	0	0	-1.063857818665909	1.306206804212336	9.151776531018937	0.5270820004722648	0.009199316336239329	-5.112548103921762	0	0	0	0	0	0	-11.17987017935928	0	75.00351404355885	45.083444785338	0	0	0	-11.17987017935928	0	75.00351404355885	45.083444785338	0	0
10.14393	1.301449373546118	1.315128900812369	0.7845450177457254	0	0.9399999999999999	0	-1.604158608325345	0.1376472286706315	-9.578635824737475	0.5103975612822874	0.008908117938525447	-5.112411330831418	0	0	-1.049437114476635	1.324925730568124	9.310549988550468	0.5223817495310402	0.009117281481644996	-5.112411330831418	0	0	0	0	0	0	-11.18042489906104	0	75.00351310955058	45.0833820745899	0	0	0	-11.18042489906104	0	75.00351310955058	45.0833820745899	0	0
10.20857	1.300373799032069	1.227738818913759	0.1927579832573828	0	0.9399999999999999	0	-1.6173930404186	0.2015311319641154	-8.987587615445948	0.498425084379904	0.008699158796959884	-5.112241594232611	0	0	-1.039499893770221	1.253641059736794	8.713433700164217	0.5168397033014641	0.009020554527641157	-5.112241594232611	0	0	0	0	0	0	-11.18109260004288	0	75.00351198050279	45.08330515575653	0	0	0	-11.18109260004288	0	75.00351198050279	45.08330515575653	0	0
10.21728	1.230960628848239	1.231654254953627	0.2083113766625719	0	0.9399999999999999	0	-1.537694294958256	0.2150221151817273	-8.993968449676474	0.4913644988158956	0.008575928331749156	-5.112146586316621	0	0	-0.9698203076951564	1.257031109546873	8.729819206009077	0.5129576047143741	0.008952799125409416	-5.112146586316621	0	0	0	0	0	0	-11.1815041891111	0	75.00351129818485	45.08326076918863	0	0	0	-11.1815041891111	0	75.00351129818485	45.08326076918863	0	0
10.27576	1.209265375714151	1.248779399464757	0.3268149786638174	0	0.9399999999999999	0	-1.514688699802448	0.190644639352612	-9.10864365569353	0.4651717689326013	0.00811877895520016	-5.112003313469033	0	0	-0.9530224333689792	1.272893182087766	8.847990193884371	0.51230334394708	0.008941380120853508	-5.112003313469033	0	0	0	0	0	0	-11.18207657829139	0	75.00351033063725	45.08319534191867	0	0	0	-11.18207657829139	0	75.00351033063725	45.08319534191867	0	0
10.32781	1.173960538806808	1.176171160596443	-0.2012439395855771	0	0.9399999999999999	0	-1.454186671713857	0.2524653112421904	-8.577745716826028	0.4709375192897791	0.008219410282780953	-5.111842166738723	0	0	-0.9045371631554038	1.206647091506108	8.318413207862621	0.5130742453727635	0.008954834888940003	-5.111842166738723	0	0	0	0	0	0	-11.18271086346974	0	75.00350925673854	45.08312219552288	0	0	0	-11.18271086346974	0	75.00350925673854	45.08312219552288	0	0
10.41581	1.218829885277766	1.097077691123862	-0.7598785365158903	0	0.9399999999999999	0	-1.505191915788826	0.3373542240152913	-8.020426411652966	0.4926137474831803	0.008597731834169425	-5.111692993445123	0	0	-0.9360124036037638	1.140504107158399	7.752599805726743	0.5171940327366712	0.009026738742922251	-5.111692993445123	0	0	0	0	0	0	-11.18330245060235	0	75.00350825714519	45.08305434654357	0	0	0	-11.18330245060235	0	75.00350825714519	45.08305434654357	0	0
10.41787	1.290436074231116	1.031369882330397	-1.230490451672352	0	0.9399999999999999	0	-1.494361581067359	0.4009609842853604	-7.554937605933076	0.517333265965243	0.009029168821189011	-5.111541160716979	0	0	-1.004756725294531	1.080858160467353	7.288111970065117	0.5131859596171739	0.008956784670326344	-5.111541160716979	0	0	0	0	0	0	-11.18390002979609	0	75.00350724549295	45.08298543162227	0	0	0	-11.18390002979609	0	75.00350724549295	45.08298543162227	0	0
10.4502	1.375268949127227	1.01561917436915	-1.331389428788275	0	0.9399999999999999	0	-1.519501428664568	0.4112422715695617	-7.450046578923287	0.5238513302390875	0.009142930503624211	-5.111403715274329	0	0	-1.093038344965291	1.071402270254625	7.190151511144305	0.5148427115930932	0.008985700447195058	-5.111403715274329	0	0	0	0	0	0	-11.18443452019648	0	75.00350633687428	45.08292318568559	0	0	0	-11.18443452019648	0	75.00350633687428	45.08292318568559	0	0
10.50869	1.443678504884935	1.022270897225525	-1.298280559628569	0	0.9399999999999999	0	-1.634579661811152	0.3889090748300458	-7.48086397543813	0.5075695730021815	0.008858760231829787	-5.111238191832093	0	0	-1.15497381166196	1.082601746291093	7.231894621383478	0.5121351993275765	0.008938445443623658	-5.111238191832093	0	0	0	0	0	0	-11.18508723445966	0	75.00350523011781	45.08284786945671	0	0	0	-11.18508723445966	0	75.00350523011781	45.08284786945671	0	0
10.57547	1.467698668651762	1.003208520930998	-1.438503873948963	0	0.9399999999999999	0	-1.620489923342088	0.4021557270768782	-7.351211146451801	0.5328371915768193	0.009299763370095292	-5.111111850870565	0	0	-1.179977699119839	1.061702026347806	7.085185211112558	0.5131728993042957	0.008956556724865276	-5.111111850870565	0	0	0	0	0	0	-11.18558936533711	0	75.00350438028654	45.08279024102256	0	0	0	-11.18558936533711	0	75.00350438028654	45.08279024102256	0	0
